<?xml version="1.0" encoding="utf-8"?>
<!-- Generator: Adobe Illustrator 26.5.0, SVG Export Plug-In . SVG Version: 6.00 Build 0)  -->
<svg version="1.1" id="Layer_1" xmlns="http://www.w3.org/2000/svg" xmlns:xlink="http://www.w3.org/1999/xlink" x="0px" y="0px"
	 viewBox="0 0 24 24" style="enable-background:new 0 0 24 24;" xml:space="preserve">
<style type="text/css">
	.st0{fill:#CE976A;}
	.st1{fill:#CAB292;}
	.st2{fill:#CA8252;}
	.st3{fill:#CAB192;}
	.st4{fill:#A59078;}
	.st5{fill:#F9F8F6;}
	.st6{fill:#FBF8F6;}
	.st7{fill:#FCFBF9;}
</style>
<path class="st0" d="M12,0c0.3,0.2,0.6,0.5,0.9,0.7c1.3,1.1,2.5,2.3,3.8,3.5C16.9,4.4,17,4.7,17,5c0,1.1,0,2.2,0,3.2
	c0,0.6-0.3,0.9-0.9,0.9c-0.7,0-1.5,0-2.2,0c-0.2,0-0.4-0.1-0.6-0.2C12.1,8.1,11,7.3,9.8,6.5c-0.3-0.2-0.6-0.3-1-0.3
	c-0.4,0-0.9,0-1.3,0C7,6.2,6.8,6,6.6,5.6C6.2,4.1,5.7,2.7,5.2,1.2C5,0.6,5.2,0.3,5.8,0C7.8,0,9.9,0,12,0z"/>
<path class="st0" d="M15.5,24c-0.5-0.2-0.6-0.5-0.6-1c0-0.7,0-1.3,0-2c0-0.3,0.1-0.5,0.3-0.7c0.9-0.9,1.9-1.9,2.8-2.8
	c0.4-0.4,0.8-0.4,1.2,0c1.5,1.5,3,3,4.5,4.5c0.1,0.1,0.2,0.3,0.3,0.4c0,0.3,0,0.6,0,0.9c-0.1,0.3-0.3,0.6-0.7,0.7
	C20.7,24,18.1,24,15.5,24z"/>
<path class="st0" d="M0,20.5c0.1-0.3,0.4-0.5,0.6-0.7C1.7,19,2.8,18.1,4,17.3c0.2-0.2,0.5-0.2,0.8-0.2c0.5,0.1,1,0.3,1.6,0.4
	c0.4,0.1,0.6,0.3,0.7,0.6c0.2,0.5,0.4,1.1,0.6,1.6c0.1,0.3,0.1,0.5-0.1,0.8c-0.7,1-1.4,2.1-2.1,3.1C5.3,23.8,5.1,23.9,5,24
	c-1.4,0-2.9,0-4.3,0c-0.3-0.1-0.6-0.3-0.7-0.7C0,22.4,0,21.4,0,20.5z"/>
<path class="st1" d="M24,18.2c-0.1,0.2-0.3,0.4-0.5,0.5c-0.3,0.1-0.6,0-0.8-0.2c-0.9-0.9-1.8-1.8-2.7-2.8c-0.2-0.2-0.3-0.5-0.2-0.9
	c0.4-1.2,0.7-2.4,1-3.6c0.1-0.5,0.3-0.7,0.8-0.7c0.5,0,1-0.1,1.4-0.1c0.5-0.1,0.8,0.1,1,0.6C24,13.5,24,15.9,24,18.2z"/>
<path class="st2" d="M24,8.2c-0.2,0.5-0.6,0.6-1,0.6c-1.2,0.1-2.3,0.2-3.5,0.2c-0.6,0-0.9-0.3-0.9-0.9c0-0.9,0-1.8,0-2.8
	c0-0.5,0.2-0.7,0.7-0.9c1.2-0.3,2.3-0.7,3.5-1C23.4,3.3,23.7,3.5,24,4C24,5.4,24,6.8,24,8.2z"/>
<path class="st3" d="M2.7,0c0.4,0.1,0.5,0.4,0.6,0.8c0.4,1.5,0.9,2.9,1.4,4.4C4.9,5.7,4.6,6.2,4,6.2c-1,0-2,0-3,0
	c-0.5,0-0.8-0.1-1-0.6c0-1.7,0-3.3,0-5C0.1,0.3,0.3,0.1,0.6,0C1.3,0,2,0,2.7,0z"/>
<path class="st4" d="M0,8.5C0.2,8,0.5,7.8,0.9,7.9C1.3,8,1.5,8.2,1.6,8.5c0.4,1.8,0.8,3.7,1.3,5.5c0.1,0.4,0.2,0.8,0.3,1.1
	c0.1,0.4,0,0.7-0.3,1c-0.4,0.3-0.9,0.7-1.3,1c-0.6,0.5-1.1,0.4-1.4-0.3C0,14,0,11.3,0,8.5z"/>
<path class="st4" d="M24,1c-0.1,0.4-0.4,0.5-0.8,0.6c-1.6,0.5-3.1,0.9-4.7,1.4c-0.3,0.1-0.6,0.1-0.9-0.2c-0.5-0.5-1-0.9-1.5-1.4
	c-0.5-0.4-0.6-1.2,0.2-1.5c2.3,0,4.7,0,7,0c0.3,0.1,0.6,0.3,0.7,0.7C24,0.8,24,0.9,24,1z"/>
<path class="st1" d="M8.5,24c-0.1-0.1-0.2-0.1-0.3-0.2c-0.3-0.3-0.4-0.6-0.2-1c0.3-0.5,0.6-0.9,0.9-1.4c0.2-0.2,0.4-0.3,0.7-0.3
	c0.9,0,1.8,0,2.8,0c0.5,0,0.9,0.3,0.8,0.8c0,0.4,0,0.7,0,1.1c0,0.5-0.1,0.8-0.6,1C11.3,24,9.9,24,8.5,24z"/>
<path class="st5" d="M24,0.7c-0.1-0.3-0.3-0.6-0.7-0.7c0.2,0,0.4,0,0.7,0C24,0.2,24,0.4,24,0.7z"/>
<path class="st6" d="M0,23.3c0.1,0.3,0.3,0.6,0.7,0.7c-0.2,0-0.4,0-0.7,0C0,23.8,0,23.6,0,23.3z"/>
<path class="st6" d="M23.3,24c0.3-0.1,0.6-0.3,0.7-0.7c0,0.2,0,0.4,0,0.7C23.8,24,23.6,24,23.3,24z"/>
<path class="st7" d="M0.6,0C0.3,0.1,0.1,0.3,0,0.6C0,0.4,0,0.2,0,0C0.2,0,0.4,0,0.6,0z"/>
<path class="st4" d="M16.1,10.8c0.7,0,1.3,0,2,0c0.6,0,1,0.5,0.8,1.1C18.6,12.9,18.3,14,18,15c-0.1,0.2-0.2,0.3-0.3,0.5
	c-1.2,1.2-2.4,2.4-3.7,3.7c-0.2,0.2-0.4,0.3-0.7,0.3c-1.1,0-2.3,0-3.4,0c-0.5,0-0.7-0.2-0.9-0.6c-0.2-0.4-0.3-0.8-0.5-1.2
	c-0.1-0.3-0.1-0.6,0.1-0.9c1.5-1.9,3.1-3.7,4.6-5.6c0.2-0.2,0.4-0.4,0.8-0.3C14.7,10.8,15.4,10.8,16.1,10.8z"/>
<path class="st2" d="M6.3,7.9c0.7,0,1.5,0,2.2,0c0.2,0,0.4,0.1,0.6,0.2c0.7,0.5,1.4,1,2.2,1.5c0.5,0.3,0.6,0.8,0.2,1.3
	c-1.3,1.6-2.6,3.2-3.9,4.7c-0.3,0.3-0.6,0.5-1,0.3c-0.4-0.1-0.8-0.2-1.1-0.3c-0.4-0.1-0.6-0.3-0.7-0.7c-0.5-2-0.9-4-1.4-6
	c-0.1-0.6,0.2-1,0.8-1C4.9,7.9,5.6,7.9,6.3,7.9z"/>
</svg>
